<svg width="30" height="43" viewBox="0 0 30 43" fill="none" xmlns="http://www.w3.org/2000/svg">
<g id="mouse" opacity="0.8">
<path id="Vector" d="M15 5C10.0373 5 6 8.82656 6 13.5302V25.4698C6 30.1734 10.0373 34 15 34C19.9627 34 24 30.1734 24 25.4698V13.5302C24 8.82656 19.9627 5 15 5ZM22.1642 25.4698C22.1642 29.2139 18.9503 32.2601 15 32.2601C11.0497 32.2601 7.83576 29.2139 7.83576 25.4698V13.5302C7.83576 9.78613 11.0497 6.73993 15 6.73993C18.9503 6.73993 22.1642 9.78613 22.1642 13.5302V25.4698Z" fill="white"/>
<path id="Vector_2" d="M14.9769 8.56396C14.4798 8.56396 14.0769 9.13768 14.0769 9.84569V15.7451C14.0769 16.4528 14.4798 17.0269 14.9769 17.0269C15.4738 17.0269 15.8768 16.4528 15.8768 15.7451V9.84569C15.8768 9.13768 15.474 8.56396 14.9769 8.56396Z" fill="white"/>
</g>
</svg>
